<mxfile host="app.diagrams.net" modified="2023-10-08T13:19:33.705Z" agent="Mozilla/5.0 (Windows NT 10.0; Win64; x64) AppleWebKit/537.36 (KHTML, like Gecko) Chrome/117.0.0.0 Safari/537.36" etag="_oTVAPusLoZsphdtuk9v" version="21.6.9" type="github">
  <diagram name="Page-1" id="lGdHDDSwaWmZw2kekYor">
    <mxGraphModel dx="1050" dy="545" grid="1" gridSize="10" guides="1" tooltips="1" connect="1" arrows="1" fold="1" page="1" pageScale="1" pageWidth="850" pageHeight="1100" math="0" shadow="0">
      <root>
        <mxCell id="0" />
        <mxCell id="1" parent="0" />
        <mxCell id="2_IZ3y3aKom0MHih11gg-4" style="edgeStyle=orthogonalEdgeStyle;rounded=0;orthogonalLoop=1;jettySize=auto;html=1;exitX=1;exitY=0;exitDx=0;exitDy=0;entryX=0;entryY=0.5;entryDx=0;entryDy=0;" edge="1" parent="1" source="2_IZ3y3aKom0MHih11gg-1" target="2_IZ3y3aKom0MHih11gg-2">
          <mxGeometry relative="1" as="geometry" />
        </mxCell>
        <mxCell id="2_IZ3y3aKom0MHih11gg-5" style="edgeStyle=orthogonalEdgeStyle;rounded=0;orthogonalLoop=1;jettySize=auto;html=1;exitX=1;exitY=1;exitDx=0;exitDy=0;entryX=0;entryY=0.5;entryDx=0;entryDy=0;" edge="1" parent="1" source="2_IZ3y3aKom0MHih11gg-1" target="2_IZ3y3aKom0MHih11gg-3">
          <mxGeometry relative="1" as="geometry" />
        </mxCell>
        <mxCell id="2_IZ3y3aKom0MHih11gg-1" value="USER" style="ellipse;whiteSpace=wrap;html=1;fontStyle=1" vertex="1" parent="1">
          <mxGeometry x="220" y="200" width="120" height="120" as="geometry" />
        </mxCell>
        <mxCell id="2_IZ3y3aKom0MHih11gg-2" value="&lt;b&gt;SIGN UP&lt;/b&gt;" style="rounded=0;whiteSpace=wrap;html=1;" vertex="1" parent="1">
          <mxGeometry x="490" y="120" width="250" height="90" as="geometry" />
        </mxCell>
        <mxCell id="2_IZ3y3aKom0MHih11gg-3" value="&lt;b&gt;SIGN IN&lt;/b&gt;" style="rounded=0;whiteSpace=wrap;html=1;" vertex="1" parent="1">
          <mxGeometry x="490" y="320" width="260" height="90" as="geometry" />
        </mxCell>
      </root>
    </mxGraphModel>
  </diagram>
</mxfile>
